999
"DXF R12 Output" (www.mydxf.blogspot.com)
 0 
SECTION
 2 
HEADER
 9 
$ACADVER
 1 
AC1009
 9 
$EXTMIN
 10 
 0 
 20 
 0 
 9 
$EXTMAX
 10 
 8.5 
 20 
 11 
 0 
ENDSEC
 0 
SECTION
 2 
ENTITIES
0
LINE
8
Layer 1
10
0.793749
20
700.793749
11
-0.793749
21
699.206251
0
LINE
8
Layer 1
10
0.000000
20
701.322915
11
0.000000
21
698.677085
0
LINE
8
Layer 1
10
2.116664
20
698.941668
11
1.058332
21
697.883336
0
LINE
8
Layer 1
10
1.587498
20
699.470834
11
0.529166
21
698.412502
0
LINE
8
Layer 1
10
1.058332
20
700.000000
11
0.000000
21
698.941668
0
LINE
8
Layer 1
10
0.793749
20
700.793749
11
-0.793749
21
699.206251
0
LINE
8
Layer 1
10
0.000000
20
701.322915
11
0.000000
21
698.677085
0
LINE
8
Layer 1
10
2.116664
20
698.941668
11
1.058332
21
697.883336
0
LINE
8
Layer 1
10
1.587498
20
699.470834
11
0.529166
21
698.412502
0
LINE
8
Layer 1
10
1.058332
20
700.000000
11
0.000000
21
698.941668
0
LINE
8
Layer 1
10
309.653523
20
177.543613
11
537.505127
21
177.543613
0
LINE
8
Layer 1
10
537.505127
20
177.543613
11
537.505127
21
517.322322
0
LINE
8
Layer 1
10
537.505127
20
517.322322
11
309.653523
21
517.322322
0
LINE
8
Layer 1
10
309.653523
20
517.322322
11
219.712144
21
607.263743
0
LINE
8
Layer 1
10
219.712144
20
607.263743
11
155.753794
21
607.263743
0
LINE
8
Layer 1
10
155.753794
20
607.263743
11
153.305399
21
607.143808
0
LINE
8
Layer 1
10
153.305399
20
607.143808
11
150.879956
21
606.784049
0
LINE
8
Layer 1
10
150.879956
20
606.784049
11
148.501524
21
606.188438
0
LINE
8
Layer 1
10
148.501524
20
606.188438
11
146.193029
21
605.361968
0
LINE
8
Layer 1
10
146.193029
20
605.361968
11
143.976472
21
604.313656
0
LINE
8
Layer 1
10
143.976472
20
604.313656
11
141.873820
21
603.053474
0
LINE
8
Layer 1
10
141.873820
20
603.053474
11
139.904116
21
601.592417
0
LINE
8
Layer 1
10
139.904116
20
601.592417
11
138.087296
21
599.946510
0
LINE
8
Layer 1
10
138.087296
20
599.946510
11
136.441389
21
598.129687
0
LINE
8
Layer 1
10
136.441389
20
598.129687
11
134.980333
21
596.159957
0
LINE
8
Layer 1
10
134.980333
20
596.159957
11
133.720150
21
594.057334
0
LINE
8
Layer 1
10
133.720150
20
594.057334
11
132.671838
21
591.840774
0
LINE
8
Layer 1
10
132.671838
20
591.840774
11
131.845368
21
589.532282
0
LINE
8
Layer 1
10
131.845368
20
589.532282
11
131.249757
21
587.153824
0
LINE
8
Layer 1
10
131.249757
20
587.153824
11
130.889999
21
584.728407
0
LINE
8
Layer 1
10
130.889999
20
584.728407
11
130.770063
21
582.280012
0
LINE
8
Layer 1
10
130.770063
20
582.280012
11
130.770063
21
112.585920
0
LINE
8
Layer 1
10
130.770063
20
112.585920
11
130.889999
21
110.137522
0
LINE
8
Layer 1
10
130.889999
20
110.137522
11
131.249757
21
107.712116
0
LINE
8
Layer 1
10
131.249757
20
107.712116
11
131.845368
21
105.333647
0
LINE
8
Layer 1
10
131.845368
20
105.333647
11
132.671838
21
103.025161
0
LINE
8
Layer 1
10
132.671838
20
103.025161
11
133.720150
21
100.808590
0
LINE
8
Layer 1
10
133.720150
20
100.808590
11
134.980333
21
98.705975
0
LINE
8
Layer 1
10
134.980333
20
98.705975
11
136.441389
21
96.736234
0
LINE
8
Layer 1
10
136.441389
20
96.736234
11
138.087296
21
94.919422
0
LINE
8
Layer 1
10
138.087296
20
94.919422
11
139.904116
21
93.273531
0
LINE
8
Layer 1
10
139.904116
20
93.273531
11
141.873820
21
91.812451
0
LINE
8
Layer 1
10
141.873820
20
91.812451
11
143.976472
21
90.552268
0
LINE
8
Layer 1
10
143.976472
20
90.552268
11
146.193029
21
89.503964
0
LINE
8
Layer 1
10
146.193029
20
89.503964
11
148.501524
21
88.677486
0
LINE
8
Layer 1
10
148.501524
20
88.677486
11
150.879956
21
88.081883
0
LINE
8
Layer 1
10
150.879956
20
88.081883
11
153.305399
21
87.722130
0
LINE
8
Layer 1
10
153.305399
20
87.722130
11
155.753794
21
87.602221
0
LINE
8
Layer 1
10
155.753794
20
87.602221
11
219.712144
21
87.602221
0
LINE
8
Layer 1
10
219.712144
20
87.602221
11
309.653523
21
177.543613
0
LINE
8
Layer 1
10
551.441666
20
177.679503
11
551.441666
21
517.458230
0
LINE
8
Layer 1
10
559.502611
20
340.117484
11
560.124791
21
339.887178
0
LINE
8
Layer 1
10
560.124791
20
339.887178
11
560.592640
21
339.495291
0
LINE
8
Layer 1
10
560.592640
20
339.495291
11
560.889264
21
338.967170
0
LINE
8
Layer 1
10
560.889264
20
338.967170
11
560.988138
21
338.328109
0
LINE
8
Layer 1
10
560.988138
20
338.328109
11
560.804855
21
337.382768
0
LINE
8
Layer 1
10
560.804855
20
337.382768
11
560.255005
21
336.678593
0
LINE
8
Layer 1
10
560.255005
20
336.678593
11
559.367554
21
336.240900
0
LINE
8
Layer 1
10
559.367554
20
336.240900
11
558.171414
21
336.095002
0
LINE
8
Layer 1
10
558.171414
20
336.095002
11
557.235743
21
336.186628
0
LINE
8
Layer 1
10
557.235743
20
336.186628
11
556.246996
21
336.451925
0
LINE
8
Layer 1
10
556.246996
20
336.451925
11
556.246996
21
337.392412
0
LINE
8
Layer 1
10
556.246996
20
337.392412
11
557.134460
21
337.035516
0
LINE
8
Layer 1
10
557.134460
20
337.035516
11
558.142495
21
336.914919
0
LINE
8
Layer 1
10
558.142495
20
336.914919
11
558.949156
21
337.005353
0
LINE
8
Layer 1
10
558.949156
20
337.005353
11
559.536371
21
337.276657
0
LINE
8
Layer 1
10
559.536371
20
337.276657
11
559.898103
21
337.720389
0
LINE
8
Layer 1
10
559.898103
20
337.720389
11
560.018680
21
338.328109
0
LINE
8
Layer 1
10
560.018680
20
338.328109
11
559.906543
21
338.894820
0
LINE
8
Layer 1
10
559.906543
20
338.894820
11
559.570132
21
339.321671
0
LINE
8
Layer 1
10
559.570132
20
339.321671
11
559.038380
21
339.592975
0
LINE
8
Layer 1
10
559.038380
20
339.592975
11
558.330587
21
339.683409
0
LINE
8
Layer 1
10
558.330587
20
339.683409
11
557.491356
21
339.683409
0
LINE
8
Layer 1
10
557.491356
20
339.683409
11
557.491356
21
340.484038
0
LINE
8
Layer 1
10
557.491356
20
340.484038
11
558.369163
21
340.484038
0
LINE
8
Layer 1
10
558.369163
20
340.484038
11
559.003415
21
340.555177
0
LINE
8
Layer 1
10
559.003415
20
340.555177
11
559.468850
21
340.768597
0
LINE
8
Layer 1
10
559.468850
20
340.768597
11
559.754619
21
341.120697
0
LINE
8
Layer 1
10
559.754619
20
341.120697
11
559.849876
21
341.598197
0
LINE
8
Layer 1
10
559.849876
20
341.598197
11
559.751001
21
342.087735
0
LINE
8
Layer 1
10
559.751001
20
342.087735
11
559.454377
21
342.447058
0
LINE
8
Layer 1
10
559.454377
20
342.447058
11
558.978088
21
342.671332
0
LINE
8
Layer 1
10
558.978088
20
342.671332
11
558.330587
21
342.746090
0
LINE
8
Layer 1
10
558.330587
20
342.746090
11
557.472068
21
342.659280
0
LINE
8
Layer 1
10
557.472068
20
342.659280
11
556.464034
21
342.389167
0
LINE
8
Layer 1
10
556.464034
20
342.389167
11
556.464034
21
343.257344
0
LINE
8
Layer 1
10
556.464034
20
343.257344
11
557.501014
21
343.488854
0
LINE
8
Layer 1
10
557.501014
20
343.488854
11
558.417397
21
343.566006
0
LINE
8
Layer 1
10
558.417397
20
343.566006
11
559.410959
21
343.439403
0
LINE
8
Layer 1
10
559.410959
20
343.439403
11
560.173011
21
343.059594
0
LINE
8
Layer 1
10
560.173011
20
343.059594
11
560.657734
21
342.468767
0
LINE
8
Layer 1
10
560.657734
20
342.468767
11
560.819308
21
341.699479
0
LINE
8
Layer 1
10
560.819308
20
341.699479
11
560.733702
21
341.147228
0
LINE
8
Layer 1
10
560.733702
20
341.147228
11
560.476885
21
340.686602
0
LINE
8
Layer 1
10
560.476885
20
340.686602
11
560.062091
21
340.339350
0
LINE
8
Layer 1
10
560.062091
20
340.339350
11
559.502611
21
340.117484
0
LINE
8
Layer 1
10
559.502611
20
340.117484
11
559.502611
21
340.117484
0
LINE
8
Layer 1
10
565.512217
20
342.586917
11
563.052415
21
338.742896
0
LINE
8
Layer 1
10
563.052415
20
338.742896
11
565.512217
21
338.742896
0
LINE
8
Layer 1
10
565.512217
20
338.742896
11
565.512217
21
342.586917
0
LINE
8
Layer 1
10
565.256603
20
343.435805
11
566.481675
21
343.435805
0
LINE
8
Layer 1
10
566.481675
20
343.435805
11
566.481675
21
338.742896
0
LINE
8
Layer 1
10
566.481675
20
338.742896
11
567.508998
21
338.742896
0
LINE
8
Layer 1
10
567.508998
20
338.742896
11
567.508998
21
337.932611
0
LINE
8
Layer 1
10
567.508998
20
337.932611
11
566.481675
21
337.932611
0
LINE
8
Layer 1
10
566.481675
20
337.932611
11
566.481675
21
336.234861
0
LINE
8
Layer 1
10
566.481675
20
336.234861
11
565.512217
21
336.234861
0
LINE
8
Layer 1
10
565.512217
20
336.234861
11
565.512217
21
337.932611
0
LINE
8
Layer 1
10
565.512217
20
337.932611
11
562.261444
21
337.932611
0
LINE
8
Layer 1
10
562.261444
20
337.932611
11
562.261444
21
338.873124
0
LINE
8
Layer 1
10
562.261444
20
338.873124
11
565.256603
21
343.435805
0
LINE
8
Layer 1
10
571.203503
20
342.794323
11
570.543950
21
342.608632
0
LINE
8
Layer 1
10
570.543950
20
342.608632
11
570.070082
21
342.051560
0
LINE
8
Layer 1
10
570.070082
20
342.051560
11
569.787924
21
341.126723
0
LINE
8
Layer 1
10
569.787924
20
341.126723
11
569.693871
21
339.828110
0
LINE
8
Layer 1
10
569.693871
20
339.828110
11
569.787924
21
338.531885
0
LINE
8
Layer 1
10
569.787924
20
338.531885
11
570.070082
21
337.604634
0
LINE
8
Layer 1
10
570.070082
20
337.604634
11
570.543950
21
337.051192
0
LINE
8
Layer 1
10
570.543950
20
337.051192
11
571.203503
21
336.866712
0
LINE
8
Layer 1
10
571.203503
20
336.866712
11
571.865483
21
337.051192
0
LINE
8
Layer 1
10
571.865483
20
337.051192
11
572.336950
21
337.604634
0
LINE
8
Layer 1
10
572.336950
20
337.604634
11
572.622719
21
338.531885
0
LINE
8
Layer 1
10
572.622719
20
338.531885
11
572.717976
21
339.828110
0
LINE
8
Layer 1
10
572.717976
20
339.828110
11
572.622719
21
341.126723
0
LINE
8
Layer 1
10
572.622719
20
341.126723
11
572.336950
21
342.051560
0
LINE
8
Layer 1
10
572.336950
20
342.051560
11
571.865483
21
342.608632
0
LINE
8
Layer 1
10
571.865483
20
342.608632
11
571.203503
21
342.794323
0
LINE
8
Layer 1
10
571.203503
20
342.794323
11
571.203503
21
342.794323
0
LINE
8
Layer 1
10
571.203503
20
343.566006
11
572.270619
21
343.326056
0
LINE
8
Layer 1
10
572.270619
20
343.326056
11
573.050768
21
342.606205
0
LINE
8
Layer 1
10
573.050768
20
342.606205
11
573.531879
21
341.434201
0
LINE
8
Layer 1
10
573.531879
20
341.434201
11
573.692250
21
339.828110
0
LINE
8
Layer 1
10
573.692250
20
339.828110
11
573.531879
21
338.224419
0
LINE
8
Layer 1
10
573.531879
20
338.224419
11
573.050768
21
337.049988
0
LINE
8
Layer 1
10
573.050768
20
337.049988
11
572.270619
21
336.333749
0
LINE
8
Layer 1
10
572.270619
20
336.333749
11
571.203503
21
336.095002
0
LINE
8
Layer 1
10
571.203503
20
336.095002
11
570.135183
21
336.333749
0
LINE
8
Layer 1
10
570.135183
20
336.333749
11
569.351422
21
337.049988
0
LINE
8
Layer 1
10
569.351422
20
337.049988
11
568.873942
21
338.224419
0
LINE
8
Layer 1
10
568.873942
20
338.224419
11
568.714782
21
339.828110
0
LINE
8
Layer 1
10
568.714782
20
339.828110
11
568.873942
21
341.434201
0
LINE
8
Layer 1
10
568.873942
20
341.434201
11
569.351422
21
342.606205
0
LINE
8
Layer 1
10
569.351422
20
342.606205
11
570.135183
21
343.326056
0
LINE
8
Layer 1
10
570.135183
20
343.326056
11
571.203503
21
343.566006
0
LINE
8
Layer 1
10
571.203503
20
343.566006
11
571.203503
21
343.566006
0
LINE
8
Layer 1
10
114.197100
20
607.387116
11
114.197100
21
87.467178
0
LINE
8
Layer 1
10
92.271525
20
345.886373
11
96.096262
21
345.886373
0
LINE
8
Layer 1
10
96.096262
20
345.886373
11
96.096262
21
345.066456
0
LINE
8
Layer 1
10
96.096262
20
345.066456
11
93.163802
21
345.066456
0
LINE
8
Layer 1
10
93.163802
20
345.066456
11
93.163802
21
343.301185
0
LINE
8
Layer 1
10
93.163802
20
343.301185
11
93.588238
21
343.407309
0
LINE
8
Layer 1
10
93.588238
20
343.407309
11
94.012674
21
343.445885
0
LINE
8
Layer 1
10
94.012674
20
343.445885
11
95.093052
21
343.280693
0
LINE
8
Layer 1
10
95.093052
20
343.280693
11
95.922630
21
342.785116
0
LINE
8
Layer 1
10
95.922630
20
342.785116
11
96.450761
21
342.007387
0
LINE
8
Layer 1
10
96.450761
20
342.007387
11
96.626804
21
340.995741
0
LINE
8
Layer 1
10
96.626804
20
340.995741
11
96.445937
21
339.962392
0
LINE
8
Layer 1
10
96.445937
20
339.962392
11
95.903337
21
339.187078
0
LINE
8
Layer 1
10
95.903337
20
339.187078
11
95.031557
21
338.705967
0
LINE
8
Layer 1
10
95.031557
20
338.705967
11
93.863156
21
338.545597
0
LINE
8
Layer 1
10
93.863156
20
338.545597
11
92.937115
21
338.622749
0
LINE
8
Layer 1
10
92.937115
20
338.622749
11
91.967667
21
338.854259
0
LINE
8
Layer 1
10
91.967667
20
338.854259
11
91.967667
21
339.833375
0
LINE
8
Layer 1
10
91.967667
20
339.833375
11
92.864770
21
339.481268
0
LINE
8
Layer 1
10
92.864770
20
339.481268
11
93.843862
21
339.365513
0
LINE
8
Layer 1
10
93.843862
20
339.365513
11
94.591447
21
339.475242
0
LINE
8
Layer 1
10
94.591447
20
339.475242
11
95.165399
21
339.804430
0
LINE
8
Layer 1
10
95.165399
20
339.804430
11
95.530751
21
340.321703
0
LINE
8
Layer 1
10
95.530751
20
340.321703
11
95.652536
21
340.995741
0
LINE
8
Layer 1
10
95.652536
20
340.995741
11
95.530751
21
341.669766
0
LINE
8
Layer 1
10
95.530751
20
341.669766
11
95.165399
21
342.187052
0
LINE
8
Layer 1
10
95.165399
20
342.187052
11
94.591447
21
342.516220
0
LINE
8
Layer 1
10
94.591447
20
342.516220
11
93.843862
21
342.625943
0
LINE
8
Layer 1
10
93.843862
20
342.625943
11
93.062517
21
342.539133
0
LINE
8
Layer 1
10
93.062517
20
342.539133
11
92.271525
21
342.269047
0
LINE
8
Layer 1
10
92.271525
20
342.269047
11
92.271525
21
345.886373
0
LINE
8
Layer 1
10
99.385632
20
339.505398
11
102.785934
21
339.505398
0
LINE
8
Layer 1
10
102.785934
20
339.505398
11
102.785934
21
338.685455
0
LINE
8
Layer 1
10
102.785934
20
338.685455
11
98.213614
21
338.685455
0
LINE
8
Layer 1
10
98.213614
20
338.685455
11
98.213614
21
339.505398
0
LINE
8
Layer 1
10
98.213614
20
339.505398
11
99.723251
21
341.043975
0
LINE
8
Layer 1
10
99.723251
20
341.043975
11
100.929032
21
342.293150
0
LINE
8
Layer 1
10
100.929032
20
342.293150
11
101.580153
21
343.180615
0
LINE
8
Layer 1
10
101.580153
20
343.180615
11
101.768255
21
343.899248
0
LINE
8
Layer 1
10
101.768255
20
343.899248
11
101.666970
21
344.420153
0
LINE
8
Layer 1
10
101.666970
20
344.420153
11
101.363113
21
344.834946
0
LINE
8
Layer 1
10
101.363113
20
344.834946
11
100.901299
21
345.106250
0
LINE
8
Layer 1
10
100.901299
20
345.106250
11
100.316496
21
345.196684
0
LINE
8
Layer 1
10
100.316496
20
345.196684
11
99.347048
21
345.037511
0
LINE
8
Layer 1
10
99.347048
20
345.037511
11
98.261845
21
344.555203
0
LINE
8
Layer 1
10
98.261845
20
344.555203
11
98.261845
21
345.539107
0
LINE
8
Layer 1
10
98.261845
20
345.539107
11
99.361516
21
345.896030
0
LINE
8
Layer 1
10
99.361516
20
345.896030
11
100.297203
21
346.016600
0
LINE
8
Layer 1
10
100.297203
20
346.016600
11
101.302824
21
345.876735
0
LINE
8
Layer 1
10
101.302824
20
345.876735
11
102.081760
21
345.457140
0
LINE
8
Layer 1
10
102.081760
20
345.457140
11
102.580952
21
344.803600
0
LINE
8
Layer 1
10
102.580952
20
344.803600
11
102.747350
21
343.961955
0
LINE
8
Layer 1
10
102.747350
20
343.961955
11
102.578541
21
343.117908
0
LINE
8
Layer 1
10
102.578541
20
343.117908
11
101.975649
21
342.182237
0
LINE
8
Layer 1
10
101.975649
20
342.182237
11
101.208773
21
341.371952
0
LINE
8
Layer 1
10
101.208773
20
341.371952
11
99.385632
21
339.505398
0
LINE
8
Layer 1
10
99.385632
20
339.505398
11
99.385632
21
339.505398
0
LINE
8
Layer 1
10
106.914530
20
345.244918
11
106.254966
21
345.059227
0
LINE
8
Layer 1
10
106.254966
20
345.059227
11
105.781093
21
344.502154
0
LINE
8
Layer 1
10
105.781093
20
344.502154
11
105.498941
21
343.577310
0
LINE
8
Layer 1
10
105.498941
20
343.577310
11
105.404890
21
342.278678
0
LINE
8
Layer 1
10
105.404890
20
342.278678
11
105.498941
21
340.982472
0
LINE
8
Layer 1
10
105.498941
20
340.982472
11
105.781093
21
340.055228
0
LINE
8
Layer 1
10
105.781093
20
340.055228
11
106.254966
21
339.501767
0
LINE
8
Layer 1
10
106.254966
20
339.501767
11
106.914530
21
339.317279
0
LINE
8
Layer 1
10
106.914530
20
339.317279
11
107.576502
21
339.501767
0
LINE
8
Layer 1
10
107.576502
20
339.501767
11
108.047963
21
340.055228
0
LINE
8
Layer 1
10
108.047963
20
340.055228
11
108.333733
21
340.982472
0
LINE
8
Layer 1
10
108.333733
20
340.982472
11
108.428989
21
342.278678
0
LINE
8
Layer 1
10
108.428989
20
342.278678
11
108.333733
21
343.577310
0
LINE
8
Layer 1
10
108.333733
20
343.577310
11
108.047963
21
344.502154
0
LINE
8
Layer 1
10
108.047963
20
344.502154
11
107.576502
21
345.059227
0
LINE
8
Layer 1
10
107.576502
20
345.059227
11
106.914530
21
345.244918
0
LINE
8
Layer 1
10
106.914530
20
345.244918
11
106.914530
21
345.244918
0
LINE
8
Layer 1
10
106.914530
20
346.016600
11
107.981644
21
345.776650
0
LINE
8
Layer 1
10
107.981644
20
345.776650
11
108.761785
21
345.056799
0
LINE
8
Layer 1
10
108.761785
20
345.056799
11
109.242892
21
343.884789
0
LINE
8
Layer 1
10
109.242892
20
343.884789
11
109.403261
21
342.278678
0
LINE
8
Layer 1
10
109.403261
20
342.278678
11
109.242892
21
340.675007
0
LINE
8
Layer 1
10
109.242892
20
340.675007
11
108.761785
21
339.500583
0
LINE
8
Layer 1
10
108.761785
20
339.500583
11
107.981644
21
338.784343
0
LINE
8
Layer 1
10
107.981644
20
338.784343
11
106.914530
21
338.545597
0
LINE
8
Layer 1
10
106.914530
20
338.545597
11
105.846207
21
338.784343
0
LINE
8
Layer 1
10
105.846207
20
338.784343
11
105.062449
21
339.500583
0
LINE
8
Layer 1
10
105.062449
20
339.500583
11
104.584959
21
340.675007
0
LINE
8
Layer 1
10
104.584959
20
340.675007
11
104.425796
21
342.278678
0
LINE
8
Layer 1
10
104.425796
20
342.278678
11
104.584959
21
343.884789
0
LINE
8
Layer 1
10
104.584959
20
343.884789
11
105.062449
21
345.056799
0
LINE
8
Layer 1
10
105.062449
20
345.056799
11
105.846207
21
345.776650
0
LINE
8
Layer 1
10
105.846207
20
345.776650
11
106.914530
21
346.016600
0
LINE
8
Layer 1
10
106.914530
20
346.016600
11
106.914530
21
346.016600
0
LINE
8
Layer 1
10
537.651203
20
530.730007
11
309.799600
21
530.730007
0
LINE
8
Layer 1
10
537.637101
20
71.417096
11
130.460366
21
71.417096
0
LINE
8
Layer 1
10
418.751916
20
534.778934
11
422.152204
21
534.778934
0
LINE
8
Layer 1
10
422.152204
20
534.778934
11
422.152204
21
533.959004
0
LINE
8
Layer 1
10
422.152204
20
533.959004
11
417.579892
21
533.959004
0
LINE
8
Layer 1
10
417.579892
20
533.959004
11
417.579892
21
534.778934
0
LINE
8
Layer 1
10
417.579892
20
534.778934
11
419.089524
21
536.317510
0
LINE
8
Layer 1
10
419.089524
20
536.317510
11
420.295308
21
537.566699
0
LINE
8
Layer 1
10
420.295308
20
537.566699
11
420.946447
21
538.454156
0
LINE
8
Layer 1
10
420.946447
20
538.454156
11
421.134539
21
539.172800
0
LINE
8
Layer 1
10
421.134539
20
539.172800
11
421.033250
21
539.693698
0
LINE
8
Layer 1
10
421.033250
20
539.693698
11
420.729383
21
540.108487
0
LINE
8
Layer 1
10
420.729383
20
540.108487
11
420.267573
21
540.379787
0
LINE
8
Layer 1
10
420.267573
20
540.379787
11
419.682772
21
540.470220
0
LINE
8
Layer 1
10
419.682772
20
540.470220
11
418.713340
21
540.311057
0
LINE
8
Layer 1
10
418.713340
20
540.311057
11
417.628126
21
539.828744
0
LINE
8
Layer 1
10
417.628126
20
539.828744
11
417.628126
21
540.812662
0
LINE
8
Layer 1
10
417.628126
20
540.812662
11
418.727786
21
541.169574
0
LINE
8
Layer 1
10
418.727786
20
541.169574
11
419.663484
21
541.290152
0
LINE
8
Layer 1
10
419.663484
20
541.290152
11
420.669111
21
541.150282
0
LINE
8
Layer 1
10
420.669111
20
541.150282
11
421.448043
21
540.730670
0
LINE
8
Layer 1
10
421.448043
20
540.730670
11
421.947232
21
540.077136
0
LINE
8
Layer 1
10
421.947232
20
540.077136
11
422.113628
21
539.235501
0
LINE
8
Layer 1
10
422.113628
20
539.235501
11
421.944824
21
538.391455
0
LINE
8
Layer 1
10
421.944824
20
538.391455
11
421.341919
21
537.455768
0
LINE
8
Layer 1
10
421.341919
20
537.455768
11
420.575051
21
536.645485
0
LINE
8
Layer 1
10
420.575051
20
536.645485
11
418.751916
21
534.778934
0
LINE
8
Layer 1
10
418.751916
20
534.778934
11
418.751916
21
534.778934
0
LINE
8
Layer 1
10
425.036450
20
534.778934
11
428.436738
21
534.778934
0
LINE
8
Layer 1
10
428.436738
20
534.778934
11
428.436738
21
533.959004
0
LINE
8
Layer 1
10
428.436738
20
533.959004
11
423.864427
21
533.959004
0
LINE
8
Layer 1
10
423.864427
20
533.959004
11
423.864427
21
534.778934
0
LINE
8
Layer 1
10
423.864427
20
534.778934
11
425.374058
21
536.317510
0
LINE
8
Layer 1
10
425.374058
20
536.317510
11
426.579842
21
537.566699
0
LINE
8
Layer 1
10
426.579842
20
537.566699
11
427.230954
21
538.454156
0
LINE
8
Layer 1
10
427.230954
20
538.454156
11
427.419073
21
539.172800
0
LINE
8
Layer 1
10
427.419073
20
539.172800
11
427.317784
21
539.693698
0
LINE
8
Layer 1
10
427.317784
20
539.693698
11
427.013917
21
540.108487
0
LINE
8
Layer 1
10
427.013917
20
540.108487
11
426.552107
21
540.379787
0
LINE
8
Layer 1
10
426.552107
20
540.379787
11
425.967306
21
540.470220
0
LINE
8
Layer 1
10
425.967306
20
540.470220
11
424.997847
21
540.311057
0
LINE
8
Layer 1
10
424.997847
20
540.311057
11
423.912660
21
539.828744
0
LINE
8
Layer 1
10
423.912660
20
539.828744
11
423.912660
21
540.812662
0
LINE
8
Layer 1
10
423.912660
20
540.812662
11
425.012320
21
541.169574
0
LINE
8
Layer 1
10
425.012320
20
541.169574
11
425.948018
21
541.290152
0
LINE
8
Layer 1
10
425.948018
20
541.290152
11
426.953645
21
541.150282
0
LINE
8
Layer 1
10
426.953645
20
541.150282
11
427.732577
21
540.730670
0
LINE
8
Layer 1
10
427.732577
20
540.730670
11
428.231766
21
540.077136
0
LINE
8
Layer 1
10
428.231766
20
540.077136
11
428.398162
21
539.235501
0
LINE
8
Layer 1
10
428.398162
20
539.235501
11
428.229358
21
538.391455
0
LINE
8
Layer 1
10
428.229358
20
538.391455
11
427.626453
21
537.455768
0
LINE
8
Layer 1
10
427.626453
20
537.455768
11
426.859586
21
536.645485
0
LINE
8
Layer 1
10
426.859586
20
536.645485
11
425.036450
21
534.778934
0
LINE
8
Layer 1
10
425.036450
20
534.778934
11
425.036450
21
534.778934
0
LINE
8
Layer 1
10
432.565344
20
537.378599
11
431.944368
21
537.285754
0
LINE
8
Layer 1
10
431.944368
20
537.285754
11
431.470500
21
537.007217
0
LINE
8
Layer 1
10
431.470500
20
537.007217
11
431.173876
21
536.565902
0
LINE
8
Layer 1
10
431.173876
20
536.565902
11
431.075001
21
535.984715
0
LINE
8
Layer 1
10
431.075001
20
535.984715
11
431.173876
21
535.403530
0
LINE
8
Layer 1
10
431.173876
20
535.403530
11
431.470500
21
534.962213
0
LINE
8
Layer 1
10
431.470500
20
534.962213
11
431.944368
21
534.683679
0
LINE
8
Layer 1
10
431.944368
20
534.683679
11
432.565344
21
534.590834
0
LINE
8
Layer 1
10
432.565344
20
534.590834
11
433.186321
21
534.683679
0
LINE
8
Layer 1
10
433.186321
20
534.683679
11
433.660189
21
534.962213
0
LINE
8
Layer 1
10
433.660189
20
534.962213
11
433.960424
21
535.405941
0
LINE
8
Layer 1
10
433.960424
20
535.405941
11
434.060503
21
535.984715
0
LINE
8
Layer 1
10
434.060503
20
535.984715
11
433.960424
21
536.565902
0
LINE
8
Layer 1
10
433.960424
20
536.565902
11
433.660189
21
537.007217
0
LINE
8
Layer 1
10
433.660189
20
537.007217
11
433.188728
21
537.285754
0
LINE
8
Layer 1
10
433.188728
20
537.285754
11
432.565344
21
537.378599
0
LINE
8
Layer 1
10
432.565344
20
537.378599
11
432.565344
21
537.378599
0
LINE
8
Layer 1
10
431.591070
20
537.793386
11
431.032794
21
538.016457
0
LINE
8
Layer 1
10
431.032794
20
538.016457
11
430.611981
21
538.376985
0
LINE
8
Layer 1
10
430.611981
20
538.376985
11
430.351532
21
538.853268
0
LINE
8
Layer 1
10
430.351532
20
538.853268
11
430.264716
21
539.423604
0
LINE
8
Layer 1
10
430.264716
20
539.423604
11
430.417850
21
540.196508
0
LINE
8
Layer 1
10
430.417850
20
540.196508
11
430.877252
21
540.788548
0
LINE
8
Layer 1
10
430.877252
20
540.788548
11
431.607951
21
541.164751
0
LINE
8
Layer 1
10
431.607951
20
541.164751
11
432.565344
21
541.290152
0
LINE
8
Layer 1
10
432.565344
20
541.290152
11
433.525146
21
541.164751
0
LINE
8
Layer 1
10
433.525146
20
541.164751
11
434.253437
21
540.788548
0
LINE
8
Layer 1
10
434.253437
20
540.788548
11
434.712839
21
540.196508
0
LINE
8
Layer 1
10
434.712839
20
540.196508
11
434.865973
21
539.423604
0
LINE
8
Layer 1
10
434.865973
20
539.423604
11
434.777953
21
538.853268
0
LINE
8
Layer 1
10
434.777953
20
538.853268
11
434.513892
21
538.376985
0
LINE
8
Layer 1
10
434.513892
20
538.376985
11
434.097895
21
538.016457
0
LINE
8
Layer 1
10
434.097895
20
538.016457
11
433.544434
21
537.793386
0
LINE
8
Layer 1
10
433.544434
20
537.793386
11
434.170239
21
537.551025
0
LINE
8
Layer 1
10
434.170239
20
537.551025
11
434.639278
21
537.151913
0
LINE
8
Layer 1
10
434.639278
20
537.151913
11
434.935902
21
536.621368
0
LINE
8
Layer 1
10
434.935902
20
536.621368
11
435.034777
21
535.984715
0
LINE
8
Layer 1
10
435.034777
20
535.984715
11
434.874407
21
535.059882
0
LINE
8
Layer 1
10
434.874407
20
535.059882
11
434.393295
21
534.378614
0
LINE
8
Layer 1
10
434.393295
20
534.378614
11
433.617988
21
533.959003
0
LINE
8
Layer 1
10
433.617988
20
533.959003
11
432.565344
21
533.819132
0
LINE
8
Layer 1
10
432.565344
20
533.819132
11
431.511490
21
533.959003
0
LINE
8
Layer 1
10
431.511490
20
533.959003
11
430.732552
21
534.378614
0
LINE
8
Layer 1
10
430.732552
20
534.378614
11
430.255072
21
535.059882
0
LINE
8
Layer 1
10
430.255072
20
535.059882
11
430.095912
21
535.984715
0
LINE
8
Layer 1
10
430.095912
20
535.984715
11
430.194787
21
536.621368
0
LINE
8
Layer 1
10
430.194787
20
536.621368
11
430.491411
21
537.151913
0
LINE
8
Layer 1
10
430.491411
20
537.151913
11
430.964062
21
537.551025
0
LINE
8
Layer 1
10
430.964062
20
537.551025
11
431.591070
21
537.793386
0
LINE
8
Layer 1
10
431.591070
20
537.793386
11
431.591070
21
537.793386
0
LINE
8
Layer 1
10
431.234148
20
539.331963
11
431.320964
21
538.833976
0
LINE
8
Layer 1
10
431.320964
20
538.833976
11
431.581413
21
538.458979
0
LINE
8
Layer 1
10
431.581413
20
538.458979
11
432.003449
21
538.223851
0
LINE
8
Layer 1
10
432.003449
20
538.223851
11
432.565344
21
538.145475
0
LINE
8
Layer 1
10
432.565344
20
538.145475
11
433.123621
21
538.223851
0
LINE
8
Layer 1
10
433.123621
20
538.223851
11
433.544434
21
538.458979
0
LINE
8
Layer 1
10
433.544434
20
538.458979
11
433.812126
21
538.833976
0
LINE
8
Layer 1
10
433.812126
20
538.833976
11
433.901356
21
539.331963
0
LINE
8
Layer 1
10
433.901356
20
539.331963
11
433.812126
21
539.829950
0
LINE
8
Layer 1
10
433.812126
20
539.829950
11
433.544434
21
540.204949
0
LINE
8
Layer 1
10
433.544434
20
540.204949
11
433.123621
21
540.440075
0
LINE
8
Layer 1
10
433.123621
20
540.440075
11
432.565344
21
540.518451
0
LINE
8
Layer 1
10
432.565344
20
540.518451
11
432.003449
21
540.440075
0
LINE
8
Layer 1
10
432.003449
20
540.440075
11
431.581413
21
540.204949
0
LINE
8
Layer 1
10
431.581413
20
540.204949
11
431.320964
21
539.829950
0
LINE
8
Layer 1
10
431.320964
20
539.829950
11
431.234148
21
539.331963
0
LINE
8
Layer 1
10
431.234148
20
539.331963
11
431.234148
21
539.331963
0
LINE
8
Layer 1
10
325.502812
20
525.352794
11
235.561436
21
615.294221
0
LINE
8
Layer 1
10
287.992404
20
569.511660
11
287.992404
21
570.399116
0
LINE
8
Layer 1
10
287.992404
20
570.399116
11
288.735142
21
570.133842
0
LINE
8
Layer 1
10
288.735142
20
570.133842
11
289.473090
21
570.042204
0
LINE
8
Layer 1
10
289.473090
20
570.042204
11
290.323162
21
570.203779
0
LINE
8
Layer 1
10
290.323162
20
570.203779
11
290.944145
21
570.688504
0
LINE
8
Layer 1
10
290.944145
20
570.688504
11
291.345670
21
571.507228
0
LINE
8
Layer 1
10
291.345670
20
571.507228
11
291.527736
21
572.661160
0
LINE
8
Layer 1
10
291.527736
20
572.661160
11
290.818733
21
572.024508
0
LINE
8
Layer 1
10
290.818733
20
572.024508
11
289.868589
21
571.802644
0
LINE
8
Layer 1
10
289.868589
20
571.802644
11
288.900354
21
571.965425
0
LINE
8
Layer 1
10
288.900354
20
571.965425
11
288.156393
21
572.453767
0
LINE
8
Layer 1
10
288.156393
20
572.453767
11
287.686136
21
573.229083
0
LINE
8
Layer 1
10
287.686136
20
573.229083
11
287.529384
21
574.243144
0
LINE
8
Layer 1
10
287.529384
20
574.243144
11
287.693366
21
575.242738
0
LINE
8
Layer 1
10
287.693366
20
575.242738
11
288.185312
21
576.022878
0
LINE
8
Layer 1
10
288.185312
20
576.022878
11
288.949785
21
576.525688
0
LINE
8
Layer 1
10
288.949785
20
576.525688
11
289.931295
21
576.693292
0
LINE
8
Layer 1
10
289.931295
20
576.693292
11
291.032165
21
576.453341
0
LINE
8
Layer 1
10
291.032165
20
576.453341
11
291.836425
21
575.733490
0
LINE
8
Layer 1
10
291.836425
20
575.733490
11
292.332002
21
574.561472
0
LINE
8
Layer 1
10
292.332002
20
574.561472
11
292.497194
21
572.955371
0
LINE
8
Layer 1
10
292.497194
20
572.955371
11
292.294623
21
571.424030
0
LINE
8
Layer 1
10
292.294623
20
571.424030
11
291.686909
21
570.235130
0
LINE
8
Layer 1
10
291.686909
20
570.235130
11
290.741574
21
569.475486
0
LINE
8
Layer 1
10
290.741574
20
569.475486
11
289.516508
21
569.222272
0
LINE
8
Layer 1
10
289.516508
20
569.222272
11
288.773744
21
569.294620
0
LINE
8
Layer 1
10
288.773744
20
569.294620
11
287.992404
21
569.511660
0
LINE
8
Layer 1
10
287.992404
20
569.511660
11
287.992404
21
569.511660
0
LINE
8
Layer 1
10
289.931295
20
572.564699
11
290.518497
21
572.676836
0
LINE
8
Layer 1
10
290.518497
20
572.676836
11
290.968249
21
573.013249
0
LINE
8
Layer 1
10
290.968249
20
573.013249
11
291.257650
21
573.544998
0
LINE
8
Layer 1
10
291.257650
20
573.544998
11
291.354116
21
574.243144
0
LINE
8
Layer 1
10
291.354116
20
574.243144
11
291.257650
21
574.937674
0
LINE
8
Layer 1
10
291.257650
20
574.937674
11
290.968249
21
575.468219
0
LINE
8
Layer 1
10
290.968249
20
575.468219
11
290.518497
21
575.808249
0
LINE
8
Layer 1
10
290.518497
20
575.808249
11
289.931295
21
575.921593
0
LINE
8
Layer 1
10
289.931295
20
575.921593
11
289.342869
21
575.808249
0
LINE
8
Layer 1
10
289.342869
20
575.808249
11
288.889499
21
575.468219
0
LINE
8
Layer 1
10
288.889499
20
575.468219
11
288.603730
21
574.937674
0
LINE
8
Layer 1
10
288.603730
20
574.937674
11
288.508473
21
574.243144
0
LINE
8
Layer 1
10
288.508473
20
574.243144
11
288.603730
21
573.544998
0
LINE
8
Layer 1
10
288.603730
20
573.544998
11
288.889499
21
573.013249
0
LINE
8
Layer 1
10
288.889499
20
573.013249
11
289.342869
21
572.676836
0
LINE
8
Layer 1
10
289.342869
20
572.676836
11
289.931295
21
572.564699
0
LINE
8
Layer 1
10
289.931295
20
572.564699
11
289.931295
21
572.564699
0
LINE
8
Layer 1
10
296.331584
20
575.921593
11
295.672012
21
575.735903
0
LINE
8
Layer 1
10
295.672012
20
575.735903
11
295.198137
21
575.178832
0
LINE
8
Layer 1
10
295.198137
20
575.178832
11
294.915979
21
574.253998
0
LINE
8
Layer 1
10
294.915979
20
574.253998
11
294.821926
21
572.955371
0
LINE
8
Layer 1
10
294.821926
20
572.955371
11
294.915979
21
571.659157
0
LINE
8
Layer 1
10
294.915979
20
571.659157
11
295.198137
21
570.731911
0
LINE
8
Layer 1
10
295.198137
20
570.731911
11
295.672012
21
570.178458
0
LINE
8
Layer 1
10
295.672012
20
570.178458
11
296.331584
21
569.993973
0
LINE
8
Layer 1
10
296.331584
20
569.993973
11
296.993544
21
570.178458
0
LINE
8
Layer 1
10
296.993544
20
570.178458
11
297.465005
21
570.731911
0
LINE
8
Layer 1
10
297.465005
20
570.731911
11
297.750774
21
571.659157
0
LINE
8
Layer 1
10
297.750774
20
571.659157
11
297.846031
21
572.955371
0
LINE
8
Layer 1
10
297.846031
20
572.955371
11
297.750774
21
574.253998
0
LINE
8
Layer 1
10
297.750774
20
574.253998
11
297.465005
21
575.178832
0
LINE
8
Layer 1
10
297.465005
20
575.178832
11
296.993544
21
575.735903
0
LINE
8
Layer 1
10
296.993544
20
575.735903
11
296.331584
21
575.921593
0
LINE
8
Layer 1
10
296.331584
20
575.921593
11
296.331584
21
575.921593
0
LINE
8
Layer 1
10
296.331584
20
576.693292
11
297.398694
21
576.453341
0
LINE
8
Layer 1
10
297.398694
20
576.453341
11
298.178823
21
575.733490
0
LINE
8
Layer 1
10
298.178823
20
575.733490
11
298.659934
21
574.561472
0
LINE
8
Layer 1
10
298.659934
20
574.561472
11
298.820305
21
572.955371
0
LINE
8
Layer 1
10
298.820305
20
572.955371
11
298.659934
21
571.351683
0
LINE
8
Layer 1
10
298.659934
20
571.351683
11
298.178823
21
570.177253
0
LINE
8
Layer 1
10
298.178823
20
570.177253
11
297.398694
21
569.461017
0
LINE
8
Layer 1
10
297.398694
20
569.461017
11
296.331584
21
569.222272
0
LINE
8
Layer 1
10
296.331584
20
569.222272
11
295.263251
21
569.461017
0
LINE
8
Layer 1
10
295.263251
20
569.461017
11
294.479503
21
570.177253
0
LINE
8
Layer 1
10
294.479503
20
570.177253
11
294.002004
21
571.351683
0
LINE
8
Layer 1
10
294.002004
20
571.351683
11
293.842837
21
572.955371
0
LINE
8
Layer 1
10
293.842837
20
572.955371
11
294.002004
21
574.561472
0
LINE
8
Layer 1
10
294.002004
20
574.561472
11
294.479503
21
575.733490
0
LINE
8
Layer 1
10
294.479503
20
575.733490
11
295.263251
21
576.453341
0
LINE
8
Layer 1
10
295.263251
20
576.453341
11
296.331584
21
576.693292
0
LINE
8
Layer 1
10
296.331584
20
576.693292
11
296.331584
21
576.693292
0
LINE
8
Layer 1
10
293.321240
20
533.967753
11
295.214782
21
536.297634
0
LINE
8
Layer 1
10
295.214782
20
536.297634
11
297.416170
21
538.339593
0
LINE
8
Layer 1
10
297.416170
20
538.339593
11
299.879429
21
540.056585
0
LINE
8
Layer 1
10
299.879429
20
540.056585
11
302.558584
21
541.411561
0
LINE
8
Layer 1
10
302.558584
20
541.411561
11
305.403267
21
542.371562
0
LINE
8
Layer 1
10
305.403267
20
542.371562
11
308.354661
21
542.923787
0
LINE
8
Layer 1
10
308.354661
20
542.923787
11
311.354120
21
543.061438
0
LINE
8
Layer 1
10
311.354120
20
543.061438
11
314.342997
21
542.777717
0
LINE
8
Layer 1
10
314.342997
20
542.777717
11
317.261098
21
542.071623
0
LINE
8
Layer 1
10
317.261098
20
542.071623
11
320.051846
21
540.963721
0
LINE
8
Layer 1
10
320.051846
20
540.963721
11
322.662014
21
539.479557
0
LINE
8
Layer 1
10
322.662014
20
539.479557
11
325.038375
21
537.644680
0
LINE
8
Layer 1
10
325.038375
20
537.644680
11
327.129489
21
535.490360
0
LINE
8
Layer 1
10
327.129489
20
535.490360
11
328.898480
21
533.064179
0
LINE
8
Layer 1
10
328.898480
20
533.064179
11
330.313970
21
530.416147
0
LINE
8
Layer 1
10
330.313970
20
530.416147
11
331.344582
21
527.596273
0
LINE
8
Layer 1
10
331.344582
20
527.596273
11
331.896466
21
525.114800
0
LINE
8
Layer 1
10
331.896466
20
525.114800
11
332.149917
21
522.585229
0
LINE
8
Layer 1
10
332.149917
20
522.585229
11
332.103471
21
520.043417
0
LINE
8
Layer 1
10
332.103471
20
520.043417
11
331.755663
21
517.525220
0
LINE
8
Layer 1
10
321.906362
20
542.379414
11
323.497988
21
542.379414
0
LINE
8
Layer 1
10
323.497988
20
542.379414
11
323.497988
21
547.872951
0
LINE
8
Layer 1
10
323.497988
20
547.872951
11
321.766477
21
547.525688
0
LINE
8
Layer 1
10
321.766477
20
547.525688
11
321.766477
21
548.413142
0
LINE
8
Layer 1
10
321.766477
20
548.413142
11
323.488330
21
548.760407
0
LINE
8
Layer 1
10
323.488330
20
548.760407
11
324.462604
21
548.760407
0
LINE
8
Layer 1
10
324.462604
20
548.760407
11
324.462604
21
542.379414
0
LINE
8
Layer 1
10
324.462604
20
542.379414
11
326.054230
21
542.379414
0
LINE
8
Layer 1
10
326.054230
20
542.379414
11
326.054230
21
541.559484
0
LINE
8
Layer 1
10
326.054230
20
541.559484
11
321.906362
21
541.559484
0
LINE
8
Layer 1
10
321.906362
20
541.559484
11
321.906362
21
542.379414
0
LINE
8
Layer 1
10
330.973833
20
545.442097
11
331.596013
21
545.211793
0
LINE
8
Layer 1
10
331.596013
20
545.211793
11
332.063862
21
544.819914
0
LINE
8
Layer 1
10
332.063862
20
544.819914
11
332.360486
21
544.291782
0
LINE
8
Layer 1
10
332.360486
20
544.291782
11
332.459361
21
543.652719
0
LINE
8
Layer 1
10
332.459361
20
543.652719
11
332.276078
21
542.707386
0
LINE
8
Layer 1
10
332.276078
20
542.707386
11
331.726228
21
542.003211
0
LINE
8
Layer 1
10
331.726228
20
542.003211
11
330.838777
21
541.565512
0
LINE
8
Layer 1
10
330.838777
20
541.565512
11
329.642637
21
541.419612
0
LINE
8
Layer 1
10
329.642637
20
541.419612
11
328.706965
21
541.511251
0
LINE
8
Layer 1
10
328.706965
20
541.511251
11
327.718219
21
541.776524
0
LINE
8
Layer 1
10
327.718219
20
541.776524
11
327.718219
21
542.717032
0
LINE
8
Layer 1
10
327.718219
20
542.717032
11
328.605683
21
542.360120
0
LINE
8
Layer 1
10
328.605683
20
542.360120
11
329.613718
21
542.239545
0
LINE
8
Layer 1
10
329.613718
20
542.239545
11
330.420379
21
542.329978
0
LINE
8
Layer 1
10
330.420379
20
542.329978
11
331.007594
21
542.601277
0
LINE
8
Layer 1
10
331.007594
20
542.601277
11
331.369325
21
543.045005
0
LINE
8
Layer 1
10
331.369325
20
543.045005
11
331.489902
21
543.652719
0
LINE
8
Layer 1
10
331.489902
20
543.652719
11
331.377765
21
544.219435
0
LINE
8
Layer 1
10
331.377765
20
544.219435
11
331.041355
21
544.646282
0
LINE
8
Layer 1
10
331.041355
20
544.646282
11
330.509603
21
544.917583
0
LINE
8
Layer 1
10
330.509603
20
544.917583
11
329.801810
21
545.008017
0
LINE
8
Layer 1
10
329.801810
20
545.008017
11
328.962579
21
545.008017
0
LINE
8
Layer 1
10
328.962579
20
545.008017
11
328.962579
21
545.808656
0
LINE
8
Layer 1
10
328.962579
20
545.808656
11
329.840386
21
545.808656
0
LINE
8
Layer 1
10
329.840386
20
545.808656
11
330.474638
21
545.879797
0
LINE
8
Layer 1
10
330.474638
20
545.879797
11
330.940072
21
546.093220
0
LINE
8
Layer 1
10
330.940072
20
546.093220
11
331.225842
21
546.445308
0
LINE
8
Layer 1
10
331.225842
20
546.445308
11
331.321098
21
546.922796
0
LINE
8
Layer 1
10
331.321098
20
546.922796
11
331.222224
21
547.412343
0
LINE
8
Layer 1
10
331.222224
20
547.412343
11
330.925600
21
547.771666
0
LINE
8
Layer 1
10
330.925600
20
547.771666
11
330.449311
21
547.995941
0
LINE
8
Layer 1
10
330.449311
20
547.995941
11
329.801810
21
548.070700
0
LINE
8
Layer 1
10
329.801810
20
548.070700
11
328.943291
21
547.983882
0
LINE
8
Layer 1
10
328.943291
20
547.983882
11
327.935256
21
547.713788
0
LINE
8
Layer 1
10
327.935256
20
547.713788
11
327.935256
21
548.581951
0
LINE
8
Layer 1
10
327.935256
20
548.581951
11
328.972236
21
548.813461
0
LINE
8
Layer 1
10
328.972236
20
548.813461
11
329.888620
21
548.890632
0
LINE
8
Layer 1
10
329.888620
20
548.890632
11
330.882182
21
548.764024
0
LINE
8
Layer 1
10
330.882182
20
548.764024
11
331.644234
21
548.384202
0
LINE
8
Layer 1
10
331.644234
20
548.384202
11
332.128956
21
547.793369
0
LINE
8
Layer 1
10
332.128956
20
547.793369
11
332.290531
21
547.024081
0
LINE
8
Layer 1
10
332.290531
20
547.024081
11
332.204925
21
546.471834
0
LINE
8
Layer 1
10
332.204925
20
546.471834
11
331.948107
21
546.011226
0
LINE
8
Layer 1
10
331.948107
20
546.011226
11
331.533314
21
545.663960
0
LINE
8
Layer 1
10
331.533314
20
545.663960
11
330.973833
21
545.442097
0
LINE
8
Layer 1
10
330.973833
20
545.442097
11
330.973833
21
545.442097
0
LINE
8
Layer 1
10
334.316257
20
548.760407
11
338.140990
21
548.760407
0
LINE
8
Layer 1
10
338.140990
20
548.760407
11
338.140990
21
547.940475
0
LINE
8
Layer 1
10
338.140990
20
547.940475
11
335.208537
21
547.940475
0
LINE
8
Layer 1
10
335.208537
20
547.940475
11
335.208537
21
546.175211
0
LINE
8
Layer 1
10
335.208537
20
546.175211
11
335.632955
21
546.281320
0
LINE
8
Layer 1
10
335.632955
20
546.281320
11
336.057399
21
546.319907
0
LINE
8
Layer 1
10
336.057399
20
546.319907
11
337.137777
21
546.154714
0
LINE
8
Layer 1
10
337.137777
20
546.154714
11
337.967344
21
545.659137
0
LINE
8
Layer 1
10
337.967344
20
545.659137
11
338.495485
21
544.881409
0
LINE
8
Layer 1
10
338.495485
20
544.881409
11
338.671532
21
543.869760
0
LINE
8
Layer 1
10
338.671532
20
543.869760
11
338.490663
21
542.836405
0
LINE
8
Layer 1
10
338.490663
20
542.836405
11
337.948056
21
542.061089
0
LINE
8
Layer 1
10
337.948056
20
542.061089
11
337.076288
21
541.579982
0
LINE
8
Layer 1
10
337.076288
20
541.579982
11
335.907883
21
541.419612
0
LINE
8
Layer 1
10
335.907883
20
541.419612
11
334.981842
21
541.496783
0
LINE
8
Layer 1
10
334.981842
20
541.496783
11
334.012384
21
541.728294
0
LINE
8
Layer 1
10
334.012384
20
541.728294
11
334.012384
21
542.707386
0
LINE
8
Layer 1
10
334.012384
20
542.707386
11
334.909505
21
542.355300
0
LINE
8
Layer 1
10
334.909505
20
542.355300
11
335.888595
21
542.239545
0
LINE
8
Layer 1
10
335.888595
20
542.239545
11
336.636174
21
542.349271
0
LINE
8
Layer 1
10
336.636174
20
542.349271
11
337.210134
21
542.678448
0
LINE
8
Layer 1
10
337.210134
20
542.678448
11
337.575477
21
543.195728
0
LINE
8
Layer 1
10
337.575477
20
543.195728
11
337.697258
21
543.869760
0
LINE
8
Layer 1
10
337.697258
20
543.869760
11
337.575477
21
544.543791
0
LINE
8
Layer 1
10
337.575477
20
544.543791
11
337.210134
21
545.061071
0
LINE
8
Layer 1
10
337.210134
20
545.061071
11
336.636174
21
545.390249
0
LINE
8
Layer 1
10
336.636174
20
545.390249
11
335.888595
21
545.499974
0
LINE
8
Layer 1
10
335.888595
20
545.499974
11
335.107255
21
545.413160
0
LINE
8
Layer 1
10
335.107255
20
545.413160
11
334.316257
21
545.143063
0
LINE
8
Layer 1
10
334.316257
20
545.143063
11
334.316257
21
548.760407
0
LINE
8
Layer 1
10
342.004299
20
548.268447
11
341.353186
21
547.998352
0
LINE
8
Layer 1
10
341.353186
20
547.998352
11
341.087915
21
547.347232
0
LINE
8
Layer 1
10
341.087915
20
547.347232
11
341.353186
21
546.700933
0
LINE
8
Layer 1
10
341.353186
20
546.700933
11
342.004299
21
546.440485
0
LINE
8
Layer 1
10
342.004299
20
546.440485
11
342.655437
21
546.700933
0
LINE
8
Layer 1
10
342.655437
20
546.700933
11
342.920708
21
547.347232
0
LINE
8
Layer 1
10
342.920708
20
547.347232
11
342.650622
21
547.998352
0
LINE
8
Layer 1
10
342.650622
20
547.998352
11
342.004299
21
548.268447
0
LINE
8
Layer 1
10
342.004299
20
548.268447
11
342.004299
21
548.268447
0
LINE
8
Layer 1
10
342.004299
20
548.890632
11
342.597547
21
548.770054
0
LINE
8
Layer 1
10
342.597547
20
548.770054
11
343.089512
21
548.432435
0
LINE
8
Layer 1
10
343.089512
20
548.432435
11
343.422305
21
547.940475
0
LINE
8
Layer 1
10
343.422305
20
547.940475
11
343.533244
21
547.347232
0
LINE
8
Layer 1
10
343.533244
20
547.347232
11
343.421107
21
546.758811
0
LINE
8
Layer 1
10
343.421107
20
546.758811
11
343.084697
21
546.266852
0
LINE
8
Layer 1
10
343.084697
20
546.266852
11
342.590323
21
545.937673
0
LINE
8
Layer 1
10
342.590323
20
545.937673
11
341.994668
21
545.827946
0
LINE
8
Layer 1
10
341.994668
20
545.827946
11
341.397808
21
545.936467
0
LINE
8
Layer 1
10
341.397808
20
545.936467
11
340.909454
21
546.262029
0
LINE
8
Layer 1
10
340.909454
20
546.262029
11
340.583898
21
546.750370
0
LINE
8
Layer 1
10
340.583898
20
546.750370
11
340.475379
21
547.347232
0
LINE
8
Layer 1
10
340.475379
20
547.347232
11
340.586312
21
547.944092
0
LINE
8
Layer 1
10
340.586312
20
547.944092
11
340.919111
21
548.442079
0
LINE
8
Layer 1
10
340.919111
20
548.442079
11
341.412274
21
548.778494
0
LINE
8
Layer 1
10
341.412274
20
548.778494
11
342.004299
21
548.890632
0
LINE
8
Layer 1
10
342.004299
20
548.890632
11
342.004299
21
548.890632
0
LINE
8
Layer 1
10
155.795382
20
606.982539
11
152.096770
21
606.705434
0
LINE
8
Layer 1
10
152.096770
20
606.705434
11
148.539848
21
605.896080
0
LINE
8
Layer 1
10
148.539848
20
605.896080
11
145.173920
21
604.587423
0
LINE
8
Layer 1
10
145.173920
20
604.587423
11
142.048288
21
602.812404
0
LINE
8
Layer 1
10
142.048288
20
602.812404
11
139.212257
21
600.603967
0
LINE
8
Layer 1
10
139.212257
20
600.603967
11
136.715130
21
597.995057
0
LINE
8
Layer 1
10
136.715130
20
597.995057
11
134.606210
21
595.018615
0
LINE
8
Layer 1
10
134.606210
20
595.018615
11
132.934801
21
591.707587
0
LINE
8
Layer 1
10
132.934801
20
591.707587
11
131.775415
21
588.184472
0
LINE
8
Layer 1
10
131.775415
20
588.184472
11
131.161985
21
584.588579
0
LINE
8
Layer 1
10
131.161985
20
584.588579
11
131.082942
21
580.978065
0
LINE
8
Layer 1
10
131.082942
20
580.978065
11
131.526719
21
577.411088
0
LINE
8
Layer 1
10
131.526719
20
577.411088
11
132.481746
21
573.945805
0
LINE
8
Layer 1
10
132.481746
20
573.945805
11
133.936456
21
570.640373
0
LINE
8
Layer 1
10
133.936456
20
570.640373
11
135.879280
21
567.552950
0
LINE
8
Layer 1
10
135.879280
20
567.552950
11
138.298651
21
564.741694
0
LINE
8
Layer 1
10
138.298651
20
564.741694
11
141.109907
21
562.322323
0
LINE
8
Layer 1
10
141.109907
20
562.322323
11
144.197330
21
560.379499
0
LINE
8
Layer 1
10
144.197330
20
560.379499
11
147.502761
21
558.924789
0
LINE
8
Layer 1
10
147.502761
20
558.924789
11
150.968044
21
557.969762
0
LINE
8
Layer 1
10
150.968044
20
557.969762
11
154.535021
21
557.525986
0
LINE
8
Layer 1
10
154.535021
20
557.525986
11
158.145535
21
557.605028
0
LINE
8
Layer 1
10
158.145535
20
557.605028
11
161.741429
21
558.218458
0
LINE
8
Layer 1
10
161.741429
20
558.218458
11
165.264544
21
559.377844
0
LINE
8
Layer 1
10
165.264544
20
559.377844
11
168.575572
21
561.049253
0
LINE
8
Layer 1
10
168.575572
20
561.049253
11
171.552013
21
563.158173
0
LINE
8
Layer 1
10
171.552013
20
563.158173
11
174.160924
21
565.655301
0
LINE
8
Layer 1
10
174.160924
20
565.655301
11
176.369361
21
568.491331
0
LINE
8
Layer 1
10
176.369361
20
568.491331
11
178.144379
21
571.616963
0
LINE
8
Layer 1
10
178.144379
20
571.616963
11
179.453037
21
574.982891
0
LINE
8
Layer 1
10
179.453037
20
574.982891
11
180.262390
21
578.539813
0
LINE
8
Layer 1
10
180.262390
20
578.539813
11
180.539496
21
582.238425
0
LINE
8
Layer 1
10
180.539496
20
582.238425
11
180.418414
21
584.684076
0
LINE
8
Layer 1
10
180.418414
20
584.684076
11
180.059651
21
587.088304
0
LINE
8
Layer 1
10
180.059651
20
587.088304
11
179.469927
21
589.434883
0
LINE
8
Layer 1
10
179.469927
20
589.434883
11
178.655962
21
591.707587
0
LINE
8
Layer 1
10
178.655962
20
591.707587
11
177.624478
21
593.890192
0
LINE
8
Layer 1
10
177.624478
20
593.890192
11
176.382194
21
595.966472
0
LINE
8
Layer 1
10
176.382194
20
595.966472
11
174.935832
21
597.920201
0
LINE
8
Layer 1
10
174.935832
20
597.920201
11
173.292112
21
599.735156
0
LINE
8
Layer 1
10
173.292112
20
599.735156
11
171.477158
21
601.378875
0
LINE
8
Layer 1
10
171.477158
20
601.378875
11
169.523429
21
602.825237
0
LINE
8
Layer 1
10
169.523429
20
602.825237
11
167.447149
21
604.067521
0
LINE
8
Layer 1
10
167.447149
20
604.067521
11
165.264544
21
605.099005
0
LINE
8
Layer 1
10
165.264544
20
605.099005
11
162.991840
21
605.912970
0
LINE
8
Layer 1
10
162.991840
20
605.912970
11
160.645261
21
606.502694
0
LINE
8
Layer 1
10
160.645261
20
606.502694
11
158.241033
21
606.861458
0
LINE
8
Layer 1
10
158.241033
20
606.861458
11
155.795382
21
606.982539
0
LINE
8
Layer 1
10
155.795382
20
606.982539
11
155.795382
21
606.982539
0
LINE
8
Layer 1
10
152.077183
20
585.690992
11
155.477488
21
585.690992
0
LINE
8
Layer 1
10
155.477488
20
585.690992
11
155.477488
21
584.871063
0
LINE
8
Layer 1
10
155.477488
20
584.871063
11
150.905165
21
584.871063
0
LINE
8
Layer 1
10
150.905165
20
584.871063
11
150.905165
21
585.690992
0
LINE
8
Layer 1
10
150.905165
20
585.690992
11
152.414802
21
587.229569
0
LINE
8
Layer 1
10
152.414802
20
587.229569
11
153.620583
21
588.478758
0
LINE
8
Layer 1
10
153.620583
20
588.478758
11
154.271706
21
589.366211
0
LINE
8
Layer 1
10
154.271706
20
589.366211
11
154.459806
21
590.084858
0
LINE
8
Layer 1
10
154.459806
20
590.084858
11
154.358521
21
590.605756
0
LINE
8
Layer 1
10
154.358521
20
590.605756
11
154.054666
21
591.020543
0
LINE
8
Layer 1
10
154.054666
20
591.020543
11
153.592852
21
591.291844
0
LINE
8
Layer 1
10
153.592852
20
591.291844
11
153.008047
21
591.382278
0
LINE
8
Layer 1
10
153.008047
20
591.382278
11
152.038599
21
591.223116
0
LINE
8
Layer 1
10
152.038599
20
591.223116
11
150.953396
21
590.740802
0
LINE
8
Layer 1
10
150.953396
20
590.740802
11
150.953396
21
591.724720
0
LINE
8
Layer 1
10
150.953396
20
591.724720
11
152.053069
21
592.081632
0
LINE
8
Layer 1
10
152.053069
20
592.081632
11
152.988754
21
592.202208
0
LINE
8
Layer 1
10
152.988754
20
592.202208
11
153.994376
21
592.062337
0
LINE
8
Layer 1
10
153.994376
20
592.062337
11
154.773311
21
591.642726
0
LINE
8
Layer 1
10
154.773311
20
591.642726
11
155.272503
21
590.989193
0
LINE
8
Layer 1
10
155.272503
20
590.989193
11
155.438901
21
590.147559
0
LINE
8
Layer 1
10
155.438901
20
590.147559
11
155.270092
21
589.303510
0
LINE
8
Layer 1
10
155.270092
20
589.303510
11
154.667202
21
588.367826
0
LINE
8
Layer 1
10
154.667202
20
588.367826
11
153.900324
21
587.557540
0
LINE
8
Layer 1
10
153.900324
20
587.557540
11
152.077183
21
585.690992
0
LINE
8
Layer 1
10
152.077183
20
585.690992
11
152.077183
21
585.690992
0
LINE
8
Layer 1
10
157.532136
20
592.071985
11
161.356874
21
592.071985
0
LINE
8
Layer 1
10
161.356874
20
592.071985
11
161.356874
21
591.252053
0
LINE
8
Layer 1
10
161.356874
20
591.252053
11
158.424416
21
591.252053
0
LINE
8
Layer 1
10
158.424416
20
591.252053
11
158.424416
21
589.486790
0
LINE
8
Layer 1
10
158.424416
20
589.486790
11
158.848849
21
589.592898
0
LINE
8
Layer 1
10
158.848849
20
589.592898
11
159.273285
21
589.631485
0
LINE
8
Layer 1
10
159.273285
20
589.631485
11
160.353665
21
589.466293
0
LINE
8
Layer 1
10
160.353665
20
589.466293
11
161.183241
21
588.970715
0
LINE
8
Layer 1
10
161.183241
20
588.970715
11
161.711374
21
588.192987
0
LINE
8
Layer 1
10
161.711374
20
588.192987
11
161.887418
21
587.181338
0
LINE
8
Layer 1
10
161.887418
20
587.181338
11
161.706551
21
586.147983
0
LINE
8
Layer 1
10
161.706551
20
586.147983
11
161.163948
21
585.372667
0
LINE
8
Layer 1
10
161.163948
20
585.372667
11
160.292169
21
584.891560
0
LINE
8
Layer 1
10
160.292169
20
584.891560
11
159.123767
21
584.731191
0
LINE
8
Layer 1
10
159.123767
20
584.731191
11
158.197729
21
584.808362
0
LINE
8
Layer 1
10
158.197729
20
584.808362
11
157.228281
21
585.039872
0
LINE
8
Layer 1
10
157.228281
20
585.039872
11
157.228281
21
586.018964
0
LINE
8
Layer 1
10
157.228281
20
586.018964
11
158.125381
21
585.666878
0
LINE
8
Layer 1
10
158.125381
20
585.666878
11
159.104476
21
585.551123
0
LINE
8
Layer 1
10
159.104476
20
585.551123
11
159.852059
21
585.660849
0
LINE
8
Layer 1
10
159.852059
20
585.660849
11
160.426010
21
585.990026
0
LINE
8
Layer 1
10
160.426010
20
585.990026
11
160.791363
21
586.507306
0
LINE
8
Layer 1
10
160.791363
20
586.507306
11
160.913147
21
587.181338
0
LINE
8
Layer 1
10
160.913147
20
587.181338
11
160.791363
21
587.855370
0
LINE
8
Layer 1
10
160.791363
20
587.855370
11
160.426010
21
588.372649
0
LINE
8
Layer 1
10
160.426010
20
588.372649
11
159.852059
21
588.701827
0
LINE
8
Layer 1
10
159.852059
20
588.701827
11
159.104476
21
588.811553
0
LINE
8
Layer 1
10
159.104476
20
588.811553
11
158.323128
21
588.724738
0
LINE
8
Layer 1
10
158.323128
20
588.724738
11
157.532136
21
588.454641
0
LINE
8
Layer 1
10
157.532136
20
588.454641
11
157.532136
21
592.071985
0
LINE
8
Layer 1
10
156.309681
20
583.161526
11
131.122771
21
583.161526
0
LINE
8
Layer 1
10
219.628761
20
623.489962
11
130.628874
21
623.489962
0
LINE
8
Layer 1
10
171.398106
20
629.212332
11
170.777128
21
629.119486
0
LINE
8
Layer 1
10
170.777128
20
629.119486
11
170.303256
21
628.840950
0
LINE
8
Layer 1
10
170.303256
20
628.840950
11
170.006634
21
628.399635
0
LINE
8
Layer 1
10
170.006634
20
628.399635
11
169.907760
21
627.818448
0
LINE
8
Layer 1
10
169.907760
20
627.818448
11
170.006634
21
627.237262
0
LINE
8
Layer 1
10
170.006634
20
627.237262
11
170.303256
21
626.795945
0
LINE
8
Layer 1
10
170.303256
20
626.795945
11
170.777128
21
626.517411
0
LINE
8
Layer 1
10
170.777128
20
626.517411
11
171.398106
21
626.424566
0
LINE
8
Layer 1
10
171.398106
20
626.424566
11
172.019083
21
626.517411
0
LINE
8
Layer 1
10
172.019083
20
626.517411
11
172.492953
21
626.795945
0
LINE
8
Layer 1
10
172.492953
20
626.795945
11
172.793192
21
627.239674
0
LINE
8
Layer 1
10
172.793192
20
627.239674
11
172.893272
21
627.818448
0
LINE
8
Layer 1
10
172.893272
20
627.818448
11
172.793192
21
628.399635
0
LINE
8
Layer 1
10
172.793192
20
628.399635
11
172.492953
21
628.840950
0
LINE
8
Layer 1
10
172.492953
20
628.840950
11
172.021493
21
629.119486
0
LINE
8
Layer 1
10
172.021493
20
629.119486
11
171.398106
21
629.212332
0
LINE
8
Layer 1
10
171.398106
20
629.212332
11
171.398106
21
629.212332
0
LINE
8
Layer 1
10
170.423834
20
629.627121
11
169.865558
21
629.850190
0
LINE
8
Layer 1
10
169.865558
20
629.850190
11
169.444740
21
630.210717
0
LINE
8
Layer 1
10
169.444740
20
630.210717
11
169.184291
21
630.687002
0
LINE
8
Layer 1
10
169.184291
20
630.687002
11
169.097474
21
631.257336
0
LINE
8
Layer 1
10
169.097474
20
631.257336
11
169.250608
21
632.030242
0
LINE
8
Layer 1
10
169.250608
20
632.030242
11
169.710011
21
632.622280
0
LINE
8
Layer 1
10
169.710011
20
632.622280
11
170.440715
21
632.998483
0
LINE
8
Layer 1
10
170.440715
20
632.998483
11
171.398106
21
633.123885
0
LINE
8
Layer 1
10
171.398106
20
633.123885
11
172.357907
21
632.998483
0
LINE
8
Layer 1
10
172.357907
20
632.998483
11
173.086198
21
632.622280
0
LINE
8
Layer 1
10
173.086198
20
632.622280
11
173.545600
21
632.030242
0
LINE
8
Layer 1
10
173.545600
20
632.030242
11
173.698734
21
631.257336
0
LINE
8
Layer 1
10
173.698734
20
631.257336
11
173.610712
21
630.687002
0
LINE
8
Layer 1
10
173.610712
20
630.687002
11
173.346646
21
630.210717
0
LINE
8
Layer 1
10
173.346646
20
630.210717
11
172.930653
21
629.850190
0
LINE
8
Layer 1
10
172.930653
20
629.850190
11
172.377200
21
629.627121
0
LINE
8
Layer 1
10
172.377200
20
629.627121
11
173.002999
21
629.384758
0
LINE
8
Layer 1
10
173.002999
20
629.384758
11
173.472047
21
628.985645
0
LINE
8
Layer 1
10
173.472047
20
628.985645
11
173.768669
21
628.455101
0
LINE
8
Layer 1
10
173.768669
20
628.455101
11
173.867543
21
627.818448
0
LINE
8
Layer 1
10
173.867543
20
627.818448
11
173.707175
21
626.893615
0
LINE
8
Layer 1
10
173.707175
20
626.893615
11
173.226070
21
626.212349
0
LINE
8
Layer 1
10
173.226070
20
626.212349
11
172.450752
21
625.792736
0
LINE
8
Layer 1
10
172.450752
20
625.792736
11
171.398106
21
625.652865
0
LINE
8
Layer 1
10
171.398106
20
625.652865
11
170.344253
21
625.792736
0
LINE
8
Layer 1
10
170.344253
20
625.792736
11
169.565318
21
626.212349
0
LINE
8
Layer 1
10
169.565318
20
626.212349
11
169.087828
21
626.893615
0
LINE
8
Layer 1
10
169.087828
20
626.893615
11
168.928665
21
627.818448
0
LINE
8
Layer 1
10
168.928665
20
627.818448
11
169.027539
21
628.455101
0
LINE
8
Layer 1
10
169.027539
20
628.455101
11
169.324161
21
628.985645
0
LINE
8
Layer 1
10
169.324161
20
628.985645
11
169.796828
21
629.384758
0
LINE
8
Layer 1
10
169.796828
20
629.384758
11
170.423834
21
629.627121
0
LINE
8
Layer 1
10
170.423834
20
629.627121
11
170.423834
21
629.627121
0
LINE
8
Layer 1
10
170.066922
20
631.165695
11
170.153739
21
630.667708
0
LINE
8
Layer 1
10
170.153739
20
630.667708
11
170.414188
21
630.292711
0
LINE
8
Layer 1
10
170.414188
20
630.292711
11
170.836211
21
630.057583
0
LINE
8
Layer 1
10
170.836211
20
630.057583
11
171.398106
21
629.979207
0
LINE
8
Layer 1
10
171.398106
20
629.979207
11
171.956382
21
630.057583
0
LINE
8
Layer 1
10
171.956382
20
630.057583
11
172.377200
21
630.292711
0
LINE
8
Layer 1
10
172.377200
20
630.292711
11
172.644882
21
630.667708
0
LINE
8
Layer 1
10
172.644882
20
630.667708
11
172.734110
21
631.165695
0
LINE
8
Layer 1
10
172.734110
20
631.165695
11
172.644882
21
631.663684
0
LINE
8
Layer 1
10
172.644882
20
631.663684
11
172.377200
21
632.038681
0
LINE
8
Layer 1
10
172.377200
20
632.038681
11
171.956382
21
632.273810
0
LINE
8
Layer 1
10
171.956382
20
632.273810
11
171.398106
21
632.352186
0
LINE
8
Layer 1
10
171.398106
20
632.352186
11
170.836211
21
632.273810
0
LINE
8
Layer 1
10
170.836211
20
632.273810
11
170.414188
21
632.038681
0
LINE
8
Layer 1
10
170.414188
20
632.038681
11
170.153739
21
631.663684
0
LINE
8
Layer 1
10
170.153739
20
631.663684
11
170.066922
21
631.165695
0
LINE
8
Layer 1
10
170.066922
20
631.165695
11
170.066922
21
631.165695
0
LINE
8
Layer 1
10
175.627983
20
625.942253
11
175.627983
21
626.829709
0
LINE
8
Layer 1
10
175.627983
20
626.829709
11
176.370745
21
626.564435
0
LINE
8
Layer 1
10
176.370745
20
626.564435
11
177.108683
21
626.472797
0
LINE
8
Layer 1
10
177.108683
20
626.472797
11
177.958758
21
626.634372
0
LINE
8
Layer 1
10
177.958758
20
626.634372
11
178.579735
21
627.119097
0
LINE
8
Layer 1
10
178.579735
20
627.119097
11
178.981260
21
627.937821
0
LINE
8
Layer 1
10
178.981260
20
627.937821
11
179.163334
21
629.091753
0
LINE
8
Layer 1
10
179.163334
20
629.091753
11
178.454336
21
628.455101
0
LINE
8
Layer 1
10
178.454336
20
628.455101
11
177.504179
21
628.233237
0
LINE
8
Layer 1
10
177.504179
20
628.233237
11
176.535936
21
628.396018
0
LINE
8
Layer 1
10
176.535936
20
628.396018
11
175.791969
21
628.884360
0
LINE
8
Layer 1
10
175.791969
20
628.884360
11
175.321715
21
629.659676
0
LINE
8
Layer 1
10
175.321715
20
629.659676
11
175.164963
21
630.673737
0
LINE
8
Layer 1
10
175.164963
20
630.673737
11
175.328950
21
631.673331
0
LINE
8
Layer 1
10
175.328950
20
631.673331
11
175.820909
21
632.453471
0
LINE
8
Layer 1
10
175.820909
20
632.453471
11
176.585374
21
632.956281
0
LINE
8
Layer 1
10
176.585374
20
632.956281
11
177.566879
21
633.123885
0
LINE
8
Layer 1
10
177.566879
20
633.123885
11
178.667758
21
632.883934
0
LINE
8
Layer 1
10
178.667758
20
632.883934
11
179.472015
21
632.164083
0
LINE
8
Layer 1
10
179.472015
20
632.164083
11
179.967590
21
630.992065
0
LINE
8
Layer 1
10
179.967590
20
630.992065
11
180.132782
21
629.385964
0
LINE
8
Layer 1
10
180.132782
20
629.385964
11
179.930210
21
627.854623
0
LINE
8
Layer 1
10
179.930210
20
627.854623
11
179.322496
21
626.665723
0
LINE
8
Layer 1
10
179.322496
20
626.665723
11
178.377166
21
625.906079
0
LINE
8
Layer 1
10
178.377166
20
625.906079
11
177.152093
21
625.652865
0
LINE
8
Layer 1
10
177.152093
20
625.652865
11
176.409331
21
625.725212
0
LINE
8
Layer 1
10
176.409331
20
625.725212
11
175.627983
21
625.942253
0
LINE
8
Layer 1
10
175.627983
20
625.942253
11
175.627983
21
625.942253
0
LINE
8
Layer 1
10
177.566879
20
628.995292
11
178.154096
21
629.107429
0
LINE
8
Layer 1
10
178.154096
20
629.107429
11
178.603852
21
629.443842
0
LINE
8
Layer 1
10
178.603852
20
629.443842
11
178.893239
21
629.975591
0
LINE
8
Layer 1
10
178.893239
20
629.975591
11
178.989701
21
630.673737
0
LINE
8
Layer 1
10
178.989701
20
630.673737
11
178.893239
21
631.368267
0
LINE
8
Layer 1
10
178.893239
20
631.368267
11
178.603852
21
631.898812
0
LINE
8
Layer 1
10
178.603852
20
631.898812
11
178.154096
21
632.238842
0
LINE
8
Layer 1
10
178.154096
20
632.238842
11
177.566879
21
632.352186
0
LINE
8
Layer 1
10
177.566879
20
632.352186
11
176.978459
21
632.238842
0
LINE
8
Layer 1
10
176.978459
20
632.238842
11
176.525087
21
631.898812
0
LINE
8
Layer 1
10
176.525087
20
631.898812
11
176.239315
21
631.368267
0
LINE
8
Layer 1
10
176.239315
20
631.368267
11
176.144058
21
630.673737
0
LINE
8
Layer 1
10
176.144058
20
630.673737
11
176.239315
21
629.975591
0
LINE
8
Layer 1
10
176.239315
20
629.975591
11
176.525087
21
629.443842
0
LINE
8
Layer 1
10
176.525087
20
629.443842
11
176.978459
21
629.107429
0
LINE
8
Layer 1
10
176.978459
20
629.107429
11
177.566879
21
628.995292
0
LINE
8
Layer 1
10
177.566879
20
628.995292
11
177.566879
21
628.995292
0
LINE
8
Layer 1
10
321.232707
20
66.598617
11
318.772906
21
62.754596
0
LINE
8
Layer 1
10
318.772906
20
62.754596
11
321.232707
21
62.754596
0
LINE
8
Layer 1
10
321.232707
20
62.754596
11
321.232707
21
66.598617
0
LINE
8
Layer 1
10
320.977067
20
67.447505
11
322.202139
21
67.447505
0
LINE
8
Layer 1
10
322.202139
20
67.447505
11
322.202139
21
62.754596
0
LINE
8
Layer 1
10
322.202139
20
62.754596
11
323.229462
21
62.754596
0
LINE
8
Layer 1
10
323.229462
20
62.754596
11
323.229462
21
61.944311
0
LINE
8
Layer 1
10
323.229462
20
61.944311
11
322.202139
21
61.944311
0
LINE
8
Layer 1
10
322.202139
20
61.944311
11
322.202139
21
60.246561
0
LINE
8
Layer 1
10
322.202139
20
60.246561
11
321.232707
21
60.246561
0
LINE
8
Layer 1
10
321.232707
20
60.246561
11
321.232707
21
61.944311
0
LINE
8
Layer 1
10
321.232707
20
61.944311
11
317.981908
21
61.944311
0
LINE
8
Layer 1
10
317.981908
20
61.944311
11
317.981908
21
62.884824
0
LINE
8
Layer 1
10
317.981908
20
62.884824
11
320.977067
21
67.447505
0
LINE
8
Layer 1
10
326.923994
20
66.806023
11
326.264421
21
66.620332
0
LINE
8
Layer 1
10
326.264421
20
66.620332
11
325.790546
21
66.063259
0
LINE
8
Layer 1
10
325.790546
20
66.063259
11
325.508389
21
65.138423
0
LINE
8
Layer 1
10
325.508389
20
65.138423
11
325.414336
21
63.839810
0
LINE
8
Layer 1
10
325.414336
20
63.839810
11
325.508389
21
62.543585
0
LINE
8
Layer 1
10
325.508389
20
62.543585
11
325.790546
21
61.616334
0
LINE
8
Layer 1
10
325.790546
20
61.616334
11
326.264421
21
61.062892
0
LINE
8
Layer 1
10
326.264421
20
61.062892
11
326.923994
21
60.878412
0
LINE
8
Layer 1
10
326.923994
20
60.878412
11
327.585954
21
61.062892
0
LINE
8
Layer 1
10
327.585954
20
61.062892
11
328.057414
21
61.616334
0
LINE
8
Layer 1
10
328.057414
20
61.616334
11
328.343184
21
62.543585
0
LINE
8
Layer 1
10
328.343184
20
62.543585
11
328.438440
21
63.839810
0
LINE
8
Layer 1
10
328.438440
20
63.839810
11
328.343184
21
65.138423
0
LINE
8
Layer 1
10
328.343184
20
65.138423
11
328.057414
21
66.063259
0
LINE
8
Layer 1
10
328.057414
20
66.063259
11
327.585954
21
66.620332
0
LINE
8
Layer 1
10
327.585954
20
66.620332
11
326.923994
21
66.806023
0
LINE
8
Layer 1
10
326.923994
20
66.806023
11
326.923994
21
66.806023
0
LINE
8
Layer 1
10
326.923994
20
67.577733
11
327.991103
21
67.337782
0
LINE
8
Layer 1
10
327.991103
20
67.337782
11
328.771233
21
66.617931
0
LINE
8
Layer 1
10
328.771233
20
66.617931
11
329.252344
21
65.445908
0
LINE
8
Layer 1
10
329.252344
20
65.445908
11
329.412714
21
63.839810
0
LINE
8
Layer 1
10
329.412714
20
63.839810
11
329.252344
21
62.236119
0
LINE
8
Layer 1
10
329.252344
20
62.236119
11
328.771233
21
61.061688
0
LINE
8
Layer 1
10
328.771233
20
61.061688
11
327.991103
21
60.345449
0
LINE
8
Layer 1
10
327.991103
20
60.345449
11
326.923994
21
60.106702
0
LINE
8
Layer 1
10
326.923994
20
60.106702
11
325.855660
21
60.345449
0
LINE
8
Layer 1
10
325.855660
20
60.345449
11
325.071913
21
61.061688
0
LINE
8
Layer 1
10
325.071913
20
61.061688
11
324.594413
21
62.236119
0
LINE
8
Layer 1
10
324.594413
20
62.236119
11
324.435246
21
63.839810
0
LINE
8
Layer 1
10
324.435246
20
63.839810
11
324.594413
21
65.445908
0
LINE
8
Layer 1
10
324.594413
20
65.445908
11
325.071913
21
66.617931
0
LINE
8
Layer 1
10
325.071913
20
66.617931
11
325.855660
21
67.337782
0
LINE
8
Layer 1
10
325.855660
20
67.337782
11
326.923994
21
67.577733
0
LINE
8
Layer 1
10
326.923994
20
67.577733
11
326.923994
21
67.577733
0
LINE
8
Layer 1
10
330.878954
20
67.447505
11
335.509156
21
67.447505
0
LINE
8
Layer 1
10
335.509156
20
67.447505
11
335.509156
21
67.032718
0
LINE
8
Layer 1
10
335.509156
20
67.032718
11
332.895023
21
60.246561
0
LINE
8
Layer 1
10
332.895023
20
60.246561
11
331.877331
21
60.246561
0
LINE
8
Layer 1
10
331.877331
20
60.246561
11
334.337133
21
66.627562
0
LINE
8
Layer 1
10
334.337133
20
66.627562
11
330.878954
21
66.627562
0
LINE
8
Layer 1
10
330.878954
20
66.627562
11
330.878954
21
67.447505
 0 
ENDSEC
 0 
EOF